<?xml version="1.0" standalone="no"?>
<!DOCTYPE svg PUBLIC "-//W3C//DTD SVG 20010904//EN"
 "http://www.w3.org/TR/2001/REC-SVG-20010904/DTD/svg10.dtd">
<svg version="1.0" xmlns="http://www.w3.org/2000/svg"
 width="966.000000pt" height="966.000000pt" viewBox="0 0 966.000000 966.000000"
 preserveAspectRatio="xMidYMid meet">
<metadata>
Created by potrace 1.14, written by Peter Selinger 2001-2017
</metadata>
<g transform="translate(0.000000,966.000000) scale(0.100000,-0.100000)"
fill="#000000" stroke="none">
<path d="M4519 9315 c0 0 -2 -40 -4 -90 -4 -111 -15 -286 -21 -340 -37 -309
-84 -537 -164 -800 -29 -95 -38 -124 -56 -170 -4 -11 -8 -22 -9 -25 -5 -21
-20 -61 -35 -95 -10 -22 -34 -80 -55 -130 -107 -257 -285 -567 -468 -815 -241
-326 -565 -652 -882 -886 -44 -32 -87 -63 -97 -69 -9 -5 -55 -36 -103 -68
-192 -128 -459 -270 -663 -353 -48 -19 -100 -41 -117 -48 -66 -29 -360 -124
-387 -126 -4 -1 -26 -7 -48 -15 -22 -8 -40 -12 -40 -10 0 3 -11 0 -26 -5 -14
-6 -39 -12 -57 -15 -18 -3 -59 -12 -93 -20 -34 -8 -83 -17 -110 -21 -27 -3
-51 -7 -54 -9 -3 -2 -29 -6 -59 -10 -30 -4 -63 -9 -75 -11 -12 -2 -46 -6 -76
-9 -30 -3 -80 -7 -110 -10 -73 -7 -219 -14 -297 -15 l-63 0 0 -320 0 -320 68
-1 c118 -1 322 -13 402 -24 19 -2 55 -7 80 -10 105 -13 345 -60 470 -92 74
-18 142 -36 150 -38 49 -11 284 -95 395 -140 329 -133 633 -305 935 -528 52
-39 97 -73 100 -76 3 -3 46 -40 95 -81 198 -163 471 -454 652 -695 273 -363
511 -837 645 -1285 34 -115 82 -309 94 -380 1 -8 7 -42 13 -75 13 -68 16 -89
30 -195 22 -163 33 -310 35 -455 l1 -90 318 0 c174 0 317 2 318 5 1 3 2 48 4
100 5 158 25 402 40 479 1 9 6 36 10 61 3 25 9 59 11 75 4 24 49 239 59 280
77 330 263 791 427 1064 21 34 38 65 38 68 0 2 14 24 30 48 17 24 30 46 30 49
0 7 132 197 188 270 235 309 573 647 842 841 30 21 57 42 60 45 3 3 57 40 120
82 239 157 511 301 755 398 109 44 368 133 419 145 12 3 75 18 141 35 66 16
136 33 155 36 19 3 67 12 105 19 39 8 90 16 115 19 25 4 56 8 70 10 52 9 182
21 325 31 22 2 82 4 133 4 l92 1 0 320 0 320 -97 1 c-107 1 -148 3 -268 14
-80 7 -95 8 -170 19 -22 3 -58 8 -80 11 -48 6 -69 10 -205 36 -708 139 -1400
485 -1955 979 -150 134 -409 410 -505 540 -14 18 -34 45 -46 59 -127 158 -327
488 -440 727 -109 229 -248 620 -278 779 -1 5 -12 53 -24 105 -30 133 -70 377
-77 470 -15 204 -18 268 -19 338 -1 46 -5 83 -11 83 -7 1 -614 5 -626 4z m449
-3099 c88 -8 212 -34 307 -64 57 -18 190 -76 206 -89 8 -7 19 -13 24 -13 19 0
206 -134 273 -196 221 -204 375 -482 427 -774 4 -19 9 -48 11 -65 13 -75 11
-297 -3 -395 -38 -276 -177 -555 -377 -761 -75 -76 -219 -192 -274 -220 -15
-7 -44 -24 -64 -36 -92 -56 -319 -132 -438 -147 -25 -3 -56 -8 -70 -11 -38 -8
-248 -8 -310 -1 -505 62 -937 388 -1133 856 -35 83 -74 214 -82 276 -3 22 -9
66 -14 99 -9 64 -7 288 3 343 3 17 8 47 11 65 75 450 412 861 854 1041 62 25
189 64 237 72 13 2 36 6 52 9 15 3 63 8 107 12 44 3 81 6 82 7 3 3 102 -2 171
-8z"/>
</g>
</svg>
